<?xml version="1.0" encoding="UTF-8"?>
<svg id="Calque_1" data-name="Calque 1" xmlns="http://www.w3.org/2000/svg" viewBox="0 0 826 235.45">
  <defs>
    <style>
      .cls-1 {
        fill: #e94e14;
      }

      .cls-2 {
        fill: #2d2678;
      }
    </style>
  </defs>
  <path class="cls-2" d="M96.07,198.95h7.84v35.6h-7.84v-35.6Z"/>
  <path class="cls-2" d="M137.86,208.2c-.77-.94-1.72-1.66-2.84-2.16-1.12-.5-2.42-.75-3.9-.75s-2.84.28-4.1.85c-1.26.57-2.35,1.37-3.27,2.39-.92,1.02-1.64,2.24-2.16,3.64-.52,1.41-.78,2.93-.78,4.58s.26,3.21.78,4.6c.52,1.39,1.23,2.6,2.14,3.62.9,1.02,1.97,1.82,3.19,2.39,1.22.57,2.54.86,3.95.86,1.61,0,3.03-.34,4.27-1.01,1.24-.67,2.26-1.61,3.07-2.82l6.54,4.88c-1.51,2.11-3.42,3.67-5.73,4.67-2.31,1.01-4.69,1.51-7.14,1.51-2.78,0-5.35-.44-7.69-1.31-2.35-.87-4.38-2.12-6.08-3.75-1.71-1.63-3.04-3.59-4-5.91-.96-2.31-1.43-4.89-1.43-7.74s.48-5.43,1.43-7.74c.96-2.31,2.29-4.28,4-5.91,1.71-1.63,3.74-2.88,6.08-3.75,2.35-.87,4.91-1.31,7.69-1.31,1.01,0,2.05.09,3.14.27,1.09.18,2.16.48,3.22.88,1.06.4,2.07.94,3.04,1.61.97.67,1.84,1.49,2.61,2.46l-6.03,4.93Z"/>
  <path class="cls-2" d="M152.54,198.95h11.87l8.2,23.23h.1l8.24-23.23h11.82v35.6h-7.84v-27.3h-.1l-9.35,27.3h-5.98l-9-27.3h-.1v27.3h-7.84v-35.6Z"/>
  <g>
    <path class="cls-1" d="M128.61,183.23c-3.54,0-6.4-2.69-6.4-6.01v-40.73c0-3.32,2.87-6.01,6.4-6.01h34.57v-27.81c0-3.32,2.87-6.01,6.4-6.01h7.59l-18.71-47.48c-8.83-22.97-36.77-37.16-57.61-37.16-3.54,0-6.4-2.69-6.4-6.01s2.87-6.01,6.4-6.01c25.72,0,58.8,16.85,69.63,45.06l21.89,55.53c.73,1.84.45,3.91-.75,5.52-1.2,1.61-3.16,2.58-5.25,2.58h-10.38v27.81c0,3.32-2.87,6.01-6.4,6.01h-34.57v34.71c0,3.32-2.87,6.01-6.4,6.01Z"/>
    <path class="cls-1" d="M135.01,70.49c-2.59-18.86-13.38-32.82-31.2-40.39-12.08-5.12-23.46-5.57-25.43-5.6-2.31-.18-18.76-1.24-35.97,3.47C17.17,34.88,2.67,50.66.44,73.6c-.32,1.81-1.41,9.82,1.77,19.77,3.16,9.86,11.29,23.51,32.09,32.55,15.01,6.52,24.41,18.94,27.92,36.89,2.75,14.05.72,26.36.71,26.47-.01.07-.02.13-.03.2-.02.16-2.32,16.35-7.78,36.58-.9,3.33,1.07,6.75,4.4,7.65.54.15,1.09.22,1.63.22,2.75,0,5.27-1.83,6.02-4.61,5.53-20.48,7.87-36.55,8.08-38.02.24-1.45,2.28-14.82-.7-30.46-4.21-22.13-16.4-38.16-35.27-46.35-30.59-13.29-26.78-37.4-26.54-38.76h0s0-.02,0-.02c.02-.1.03-.21.04-.31.01-.1.03-.2.04-.3,1.62-17.66,12.58-29.44,32.59-35,16.03-4.45,31.96-3.15,32.11-3.14.17.02.35.02.52.02,1.62.01,39.85.67,44.6,35.22,1.11,8.06-.55,14.57-5.05,19.92-11.92,14.14-39.34,15.25-39.72,15.26-3.44.11-6.14,2.99-6.03,6.43.11,3.38,2.88,6.04,6.23,6.04.07,0,.13,0,.2,0,1.35-.04,33.27-1.24,48.83-19.66,6.84-8.09,9.49-18.08,7.9-29.69Z"/>
  </g>
  <g>
    <path class="cls-2" d="M294.47,133.49v100.39h-17.63v-100.39h17.63Z"/>
    <path class="cls-2" d="M332.43,233.89h-17.34v-75.1h17.34v11.78c1.23-1.82,2.58-3.51,4.05-5.09s3.18-2.99,5.1-4.24c1.94-1.24,4.07-2.22,6.39-2.94,2.32-.72,4.94-1.08,7.88-1.08,8.49,0,15.08,2.61,19.71,7.82,4.64,5.22,6.95,12.23,6.95,21.06v47.8h-17.34v-42.58c0-5.86-1.39-10.38-4.17-13.55-2.78-3.17-6.69-4.75-11.77-4.75s-9.03,1.64-12.13,4.9c-3.12,3.26-4.66,7.83-4.66,13.69v42.29Z"/>
    <path class="cls-2" d="M452.36,222.08c-1.43,2.94-3.39,5.39-5.91,7.32-2.52,1.94-5.48,3.41-8.89,4.42-3.41.99-7.06,1.49-10.95,1.49-5.4,0-10.87-.94-16.43-2.84-5.54-1.9-10.7-4.69-15.42-8.39l7.68-11.67c4.07,3.04,8.22,5.34,12.44,6.91,4.21,1.56,8.28,2.34,12.16,2.34s6.57-.73,8.59-2.2c2.04-1.47,3.06-3.43,3.06-5.9v-.29c0-1.42-.44-2.65-1.35-3.69-.89-1.05-2.12-1.97-3.69-2.78-1.57-.8-3.37-1.52-5.4-2.13-2.04-.62-4.15-1.26-6.33-1.92-2.76-.85-5.54-1.8-8.33-2.84-2.8-1.04-5.3-2.4-7.54-4.06-2.22-1.66-4.05-3.7-5.48-6.11-1.41-2.42-2.12-5.43-2.12-9.04v-.28c0-3.51.69-6.69,2.06-9.54,1.37-2.85,3.27-5.26,5.7-7.25,2.4-1.99,5.26-3.5,8.53-4.55,3.27-1.04,6.75-1.56,10.44-1.56,4.74,0,9.55.75,14.37,2.27,4.84,1.52,9.25,3.6,13.24,6.26l-6.83,12.23c-3.61-2.18-7.26-3.92-10.95-5.2-3.69-1.28-7.1-1.92-10.24-1.92-3.31,0-5.89.71-7.76,2.13-1.85,1.42-2.76,3.22-2.76,5.41v.28c0,1.33.46,2.49,1.41,3.49.95.99,2.2,1.9,3.77,2.7,1.57.8,3.37,1.57,5.42,2.27,2.02.71,4.15,1.4,6.33,2.06,2.74.85,5.5,1.86,8.24,2.99,2.76,1.14,5.24,2.54,7.48,4.2,2.22,1.66,4.05,3.68,5.48,6.04,1.41,2.37,2.12,5.27,2.12,8.68v.29c0,3.98-.71,7.44-2.12,10.38Z"/>
    <path class="cls-2" d="M470.96,141.3h17.34v17.48h20.2v14.65h-20.2v36.96c0,3.32.81,5.73,2.42,7.2,1.63,1.48,3.89,2.21,6.83,2.21,3.71,0,7.26-.85,10.68-2.56v14.08c-2.18,1.23-4.5,2.18-6.97,2.85-2.48.65-5.32.99-8.53.99s-6.05-.38-8.71-1.14c-2.68-.75-5-1.99-6.97-3.71-1.96-1.71-3.47-3.96-4.52-6.77-1.05-2.81-1.57-6.3-1.57-10.48v-71.76Z"/>
    <path class="cls-2" d="M528.42,147.25v-14.99h18.63v14.99h-18.63ZM529.14,233.89v-75.1h17.34v75.1h-17.34Z"/>
    <path class="cls-2" d="M566.42,141.3h17.34v17.48h20.2v14.65h-20.2v36.96c0,3.32.81,5.73,2.42,7.2,1.63,1.48,3.89,2.21,6.83,2.21,3.71,0,7.26-.85,10.68-2.56v14.08c-2.18,1.23-4.5,2.18-6.97,2.85-2.48.65-5.32.99-8.53.99s-6.05-.38-8.71-1.14c-2.68-.75-5-1.99-6.97-3.71-1.96-1.71-3.47-3.96-4.52-6.77-1.05-2.81-1.57-6.3-1.57-10.48v-71.76Z"/>
    <path class="cls-2" d="M670.4,158.78h17.34v75.1h-17.34v-11.79c-2.46,3.64-5.54,6.78-9.23,9.41s-8.41,3.95-14.17,3.95c-8.51,0-15.1-2.61-19.73-7.83-4.64-5.21-6.95-12.23-6.95-21.06v-47.79h17.34v42.57c0,5.87,1.39,10.39,4.17,13.55,2.78,3.18,6.69,4.75,11.77,4.75s9.03-1.63,12.13-4.89c3.12-3.26,4.66-7.83,4.66-13.69v-42.29Z"/>
    <path class="cls-2" d="M707.02,141.3h17.34v17.48h20.2v14.65h-20.2v36.96c0,3.32.81,5.73,2.42,7.2,1.63,1.48,3.89,2.21,6.83,2.21,3.71,0,7.26-.85,10.68-2.56v14.08c-2.18,1.23-4.5,2.18-6.97,2.85-2.48.65-5.32.99-8.53.99s-6.05-.38-8.71-1.14c-2.68-.75-5-1.99-6.97-3.71-1.96-1.71-3.47-3.96-4.52-6.77-1.05-2.81-1.57-6.3-1.57-10.48v-71.76Z"/>
    <path class="cls-2" d="M777.92,216.31c3.89,3.27,8.63,4.91,14.23,4.91,4.27,0,7.96-.76,11.09-2.28,3.14-1.51,6.21-3.74,9.25-6.68l10.1,8.96c-3.61,4.27-7.9,7.68-12.88,10.24-4.98,2.56-10.93,3.84-17.86,3.84-5.4,0-10.44-.95-15.14-2.85-4.7-1.9-8.77-4.54-12.22-7.97-3.47-3.41-6.19-7.51-8.2-12.3-1.98-4.78-2.98-10.12-2.98-15.99,0-5.41.89-10.48,2.7-15.22,1.81-4.74,4.35-8.89,7.62-12.45,3.25-3.55,7.12-6.37,11.59-8.46,4.45-2.08,9.39-3.13,14.78-3.13,5.97,0,11.21,1.09,15.72,3.27,4.5,2.18,8.26,5.12,11.25,8.81,2.98,3.7,5.24,8.02,6.75,12.95,1.51,4.93,2.28,10.1,2.28,15.51,0,.75-.02,1.52-.08,2.27-.04.76-.12,1.57-.22,2.42h-55.19c1.05,6.16,3.51,10.87,7.4,14.15ZM808.93,190.78c-.3-2.75-.91-5.34-1.87-7.75-.93-2.42-2.22-4.5-3.83-6.26-1.61-1.76-3.53-3.16-5.76-4.2-2.24-1.04-4.78-1.57-7.62-1.57-5.32,0-9.7,1.83-13.16,5.48-3.45,3.65-5.58,8.41-6.33,14.3h38.56Z"/>
  </g>
  <path class="cls-2" d="M387.9,50.84v-10.02h12.45v10.02h-12.45ZM388.38,108.7v-50.59h11.58v50.59h-11.58Z"/>
  <path class="cls-2" d="M236.65,41.63h26.44c15.71,0,25.49,8.91,25.49,22.42v.19c0,15.04-12.07,22.9-26.83,22.9h-13.32v21.56h-11.79V41.63ZM262.14,76.51c8.91,0,14.47-4.98,14.47-11.98v-.19c0-7.86-5.65-11.98-14.47-11.98h-13.7v24.15h13.7Z"/>
  <path class="cls-2" d="M328.89,63.09c-3.55-3.64-9.2-5.65-16.77-5.65-5.59,0-9.93.8-13.92,2.12-.13,4.04-.82,7.74-2.02,11.08,4.58-1.9,8.78-3.14,14.41-3.14,8.14,0,12.55,3.83,12.55,11.02v1.25c-3.93-1.25-7.95-2.11-13.61-2.11-12.36,0-20.89,5.37-20.89,16.29v.19c0,10.16,8.43,15.62,17.92,15.62,7.76,0,13.03-3.26,16.48-7.38v6.32h11.31v-29.99c0-6.61-1.72-11.98-5.46-15.62ZM323.33,90.5c0,6.42-5.84,10.83-13.51,10.83-5.56,0-9.87-2.78-9.87-7.66v-.19c0-5.27,4.41-8.43,11.88-8.43,4.6,0,8.53.86,11.5,2.01v3.45Z"/>
  <path class="cls-2" d="M348.24,58.11h11.59v11.4c3.16-7.57,9.01-12.74,17.92-12.36v12.26h-.67c-10.16,0-17.25,6.61-17.25,20.02v19.26h-11.59v-50.59Z"/>
  <path class="cls-2" d="M409.53,102.09l5.17-7.86c5.56,4.12,11.4,6.23,16.58,6.23s7.86-2.11,7.86-5.46v-.19c0-3.93-5.37-5.27-11.31-7.09-7.47-2.11-15.81-5.17-15.81-14.85v-.19c0-9.58,7.95-15.43,18.01-15.43,6.32,0,13.22,2.2,18.59,5.75l-4.6,8.24c-4.89-2.97-10.06-4.79-14.28-4.79-4.5,0-7.09,2.11-7.09,4.98v.19c0,3.74,5.46,5.27,11.4,7.19,7.38,2.3,15.71,5.65,15.71,14.76v.19c0,10.64-8.24,15.91-18.78,15.91-7.19,0-15.14-2.59-21.46-7.57Z"/>
  <g>
    <path class="cls-2" d="M715.9,19.25V3.76h19.24v15.48h-19.24ZM716.63,108.71V30.49h17.91v78.22h-17.91Z"/>
    <path class="cls-2" d="M471.05,5.01h46.52c11.85,0,21.18,3.26,27.11,9.18,4.59,4.59,6.96,10.22,6.96,17.19v.3c0,12.44-7.11,19.11-14.81,23.11,12.15,4.15,20.59,11.11,20.59,25.18v.3c0,18.52-15.26,28.44-38.37,28.44h-48V5.01ZM533.42,34.35c0-8.15-6.52-13.18-18.22-13.18h-26.22v27.55h24.89c11.7,0,19.55-4.59,19.55-14.07v-.3ZM517.86,64.12h-28.89v28.44h30.22c12.44,0,20-4.89,20-14.22v-.3c0-8.74-6.96-13.92-21.33-13.92Z"/>
    <path class="cls-2" d="M573.52,30.49h17.92v17.63c4.89-11.7,13.92-19.7,27.7-19.11v18.96h-1.04c-15.7,0-26.67,10.22-26.67,30.96v29.78h-17.92V30.49Z"/>
    <path class="cls-2" d="M625.81,86.19v-.3c0-16.89,13.18-25.18,32.29-25.18,8.74,0,14.96,1.33,21.04,3.26v-1.93c0-11.11-6.81-17.04-19.41-17.04-8.74,0-15.26,1.92-22.37,4.89l-4.74-14.07c8.59-3.85,17.04-6.37,29.48-6.37,11.7,0,20.44,3.11,25.92,8.74,5.78,5.63,8.44,13.92,8.44,24.15v46.37h-17.48v-9.78c-5.33,6.37-13.48,11.41-25.48,11.41-14.67,0-27.7-8.44-27.7-24.15ZM679.44,80.56v-5.33c-4.59-1.78-10.67-3.11-17.78-3.11-11.56,0-18.37,4.89-18.37,13.04v.3c0,7.55,6.67,11.85,15.26,11.85,11.85,0,20.89-6.81,20.89-16.74Z"/>
    <path class="cls-2" d="M755.51,30.49h17.92v12c5.04-7.26,12.3-13.63,24.44-13.63,17.63,0,27.85,11.85,27.85,29.92v49.92h-17.92v-44.44c0-12.15-6.07-19.11-16.74-19.11s-17.63,7.26-17.63,19.4v44.15h-17.92V30.49Z"/>
  </g>
</svg>